<svg xmlns="http://www.w3.org/2000/svg" width="24" height="24" viewBox="0 0 24 24">
  <g id="_1814089_account_user_person_profile_avatar_icon" data-name="1814089_account_user_person_profile_avatar_icon" transform="translate(-8.1 -8.1)">
    <g id="Icon-User" transform="translate(8.1 8.1)">
      <path id="Fill-57" d="M-257.9-245.9a12,12,0,0,1-12-12,12,12,0,0,1,12-12,12,12,0,0,1,12,12,12,12,0,0,1-12,12Zm0-22.695A10.736,10.736,0,0,0-268.595-257.9,10.736,10.736,0,0,0-257.9-247.205,10.736,10.736,0,0,0-247.205-257.9,10.736,10.736,0,0,0-257.9-268.595Z" transform="translate(269.9 269.9)" fill="#fff"/>
      <path id="Fill-58" d="M-261.3-247.581l-1.1-.517c.322-.8,1.335-1.221,2.486-1.738,1.105-.517,2.486-1.127,2.486-1.878v-1.033a3.18,3.18,0,0,1-1.151-2.16,2.554,2.554,0,0,1-.829-1.691,2.129,2.129,0,0,1,.322-1.08,14.9,14.9,0,0,1-.276-2.348c0-2.583,1.75-4.274,4.512-4.274a3.178,3.178,0,0,1,2.256.8c1.243.235,2.256,1.738,2.256,3.475a8.894,8.894,0,0,1-.322,2.489,1.877,1.877,0,0,1,.276.939,2.023,2.023,0,0,1-.829,1.738,3.211,3.211,0,0,1-1.059,2.113v1.033c0,.658,1.151,1.08,2.21,1.5,1.243.47,2.532.939,2.947,2.019l-1.151.423c-.184-.564-1.289-.939-2.21-1.315-1.427-.517-3.039-1.127-3.039-2.63V-253.4l.276-.188a1.956,1.956,0,0,0,.829-1.644v-.423l.368-.141a.906.906,0,0,0,.414-.8.716.716,0,0,0-.184-.423l-.23-.282.092-.329a9.037,9.037,0,0,0,.322-2.442c0-1.174-.645-2.254-1.335-2.254h-.368l-.184-.329a1.81,1.81,0,0,0-1.427-.47c-2.072,0-3.315,1.127-3.315,3.053a14.251,14.251,0,0,0,.322,2.348l.092.329-.23.235a.9.9,0,0,0-.184.47c0,.329.414.751.6.939l.23.188v.329a2.037,2.037,0,0,0,.875,1.6l.276.188v1.691c0,1.55-1.7,2.348-3.223,3.006a7.111,7.111,0,0,0-1.8,1.174" transform="translate(266.876 267.642)" fill="#fff"/>
    </g>
  </g>
</svg>
